<svg id="Layer_1" data-name="Layer 1" xmlns="http://www.w3.org/2000/svg" viewBox="0 0 217.64 78.19"><defs><style>.cls-1,.cls-3{fill:#fea700;}.cls-2{fill:#fff;}.cls-3{font-size:30px;font-family:PalatinoLinotype-Bold, Palatino Linotype;font-weight:700;}</style></defs><path id="Location_outline" data-name="Location outline" class="cls-1" d="M26,6.87C6.71,11-1.8,34.15,10.76,49.35c5.91,7.14,13,13.24,19.52,19.85a1.44,1.44,0,0,0,2.32-.08C38.9,62.76,45.36,56.56,51.47,50A24,24,0,0,0,57.9,33.09C57.32,15.08,41.51,3.58,26,6.87ZM48.14,50.14c-5.23,5.3-10.55,10.5-15.77,15.8-.83.84-1.23.66-1.95-.06C25.22,60.64,20,55.46,14.76,50.21,6.61,42,5,30,10.75,20.52a24.19,24.19,0,0,1,27-10.85C48.16,12.55,55.37,22,55.4,29.75,55.41,39.63,52.85,45.36,48.14,50.14Z"/><g id="car"><path class="cls-2" d="M47,29.73c-2.32-.86-4.73-1.39-6.45-3.56-4.77-6-2.63-4.75-10.07-4.89a18.43,18.43,0,0,1-2.68,0,5.41,5.41,0,0,0-5.94,3,10.5,10.5,0,0,1-6.73,5.36,1.85,1.85,0,0,0-1.59,1.73c-.06,2.23-.08,4.46,0,6.7,0,.81.58,1.1,1.38,1.11s1.1-.09,1.31-1a4.3,4.3,0,0,1,4.35-3.45A4.22,4.22,0,0,1,24.79,38c.25,1,.73,1.13,1.61,1.12,2.51-.06,5-.06,7.54,0,.9,0,1.36-.11,1.57-1.16a4.2,4.2,0,0,1,4-3.26c2.07-.11,4,.9,4.39,2.84.35,1.66,1.22,1.67,2.44,1.56.27,0,.56,0,.84,0,2.65,0,3.78-1.13,3.8-3.81A5.72,5.72,0,0,0,47,29.73ZM24.56,28.24c-1.17,0-2.33,0-4,0,1.66-2,2.81-4,4.52-5.6l.43.17c0,1.5,0,3,0,4.5C25.58,28.06,25.25,28.26,24.56,28.24Zm2.83,9.85h-.46c-.2-2.86-.1-5.73-.07-8.6h.53Zm2.79-6.69c-.53,0-1.22.13-1.26-.51s.7-.71,1.23-.7,1.28-.15,1.28.63S30.62,31.3,30.18,31.4Zm9.38,3-.37,0V28.84h.37ZM28.18,28.23c-.67,0-1-.15-1-.92-.41-4.8-.42-4.6,4.33-4.87,3.16-.17,5.52.52,7.07,3.4a18.6,18.6,0,0,0,1.86,2.38ZM49.79,37a5.32,5.32,0,0,1,0-3.3A3,3,0,0,1,49.79,37Z"/><path class="cls-2" d="M20.56,35.64A3.41,3.41,0,0,0,17,39.08a3.31,3.31,0,0,0,3.48,3.47,3.35,3.35,0,0,0,3.57-3.4A3.47,3.47,0,0,0,20.56,35.64Zm0,5.48a1.93,1.93,0,0,1-2-2,1.79,1.79,0,0,1,2-2A1.78,1.78,0,0,1,22.46,39C22.51,40.31,21.75,40.92,20.58,41.12Z"/><path class="cls-2" d="M39.79,35.64a3.5,3.5,0,0,0-3.56,3.47,3.4,3.4,0,0,0,3.54,3.44,3.3,3.3,0,0,0,3.52-3.42A3.41,3.41,0,0,0,39.79,35.64Zm0,5.48a1.93,1.93,0,0,1-2-2,1.8,1.8,0,0,1,1.82-2A1.83,1.83,0,0,1,41.76,39C41.84,40.25,41.05,40.93,39.83,41.12Z"/></g><g id="Title"><path class="cls-1" d="M68.48,29.86H76.7c4.35,0,8,1.5,8,6.45,0,3-1.59,5.28-4.59,5.82l5.4,9H79.91l-4.44-8.49H73.16V51.1H68.48Zm4.68,8.79h2.76c1.71,0,3.93-.06,3.93-2.37,0-2.13-1.92-2.46-3.63-2.46H73.16Z"/><path class="cls-1" d="M101.15,48.58A7.91,7.91,0,0,1,95,51.45c-4.5,0-8.1-3-8.1-7.64s3.6-7.65,8.1-7.65c4.2,0,6.84,3,6.84,7.65v1.41H91.4A3.36,3.36,0,0,0,94.79,48,3.84,3.84,0,0,0,98,46.27Zm-3.81-6.42a2.7,2.7,0,0,0-2.76-2.76,3,3,0,0,0-3.18,2.76Z"/><path class="cls-1" d="M112.82,40.81a3.21,3.21,0,0,0-2.61-1.23c-.75,0-1.65.33-1.65,1.2,0,2.16,7.59.33,7.59,5.88,0,3.71-3.6,4.79-6.72,4.79a8,8,0,0,1-5.73-2l2.73-3A3.91,3.91,0,0,0,109.61,48c1,0,2-.27,2-1,0-2.34-7.59-.36-7.59-5.91,0-3.42,3.06-4.92,6.12-4.92a7.36,7.36,0,0,1,5.4,1.92Z"/><path class="cls-1" d="M149.58,29.86h3.87l9.24,21.24h-5.28l-1.83-4.5h-8.25l-1.77,4.5H140.4Zm1.8,6.18-2.58,6.6H154Z"/><path class="cls-1" d="M164.31,28.42h4.5V51.1h-4.5Z"/><path class="cls-1" d="M185.85,48.58a7.91,7.91,0,0,1-6.15,2.87c-4.5,0-8.1-3-8.1-7.64s3.6-7.65,8.1-7.65c4.2,0,6.84,3,6.84,7.65v1.41H176.1A3.36,3.36,0,0,0,179.49,48a3.84,3.84,0,0,0,3.21-1.77ZM182,42.16a2.7,2.7,0,0,0-2.76-2.76,3,3,0,0,0-3.18,2.76Z"/><path class="cls-1" d="M189.27,36.52h4.5v2.34h.06a4.45,4.45,0,0,1,4.2-2.7,5.92,5.92,0,0,1,1.5.15v4.11a6.93,6.93,0,0,0-1.92-.3c-3.42,0-3.84,2-3.84,4.89V51.1h-4.5Z"/><path class="cls-1" d="M212.41,40.12h-4V45c0,1.56.18,2.7,2.13,2.7a3.24,3.24,0,0,0,1.83-.42V51a9.31,9.31,0,0,1-3.15.44c-3,0-5.31-1.22-5.31-4.4V40.12h-2.88v-3.6H204V32.2h4.5v4.32h4Z"/><text class="cls-3" transform="translate(116.88 51.45)">Q</text></g></svg>