<svg id="Layer_1" data-name="Layer 1" xmlns="http://www.w3.org/2000/svg" viewBox="0 0 159.37 192.15"><defs><style>.cls-1,.cls-3{fill:#fea700;}.cls-2{fill:#fff;}.cls-3{font-size:30px;font-family:PalatinoLinotype-Bold, Palatino Linotype;font-weight:700;}</style></defs><path id="Location_outline" data-name="Location outline" class="cls-1" d="M68.77,8.74C25.82,17.85,6.86,69.5,34.84,103.34c13.15,15.91,28.95,29.5,43.48,44.21,1.74,1.76,3.43,1.56,5.16-.18,14-14.15,28.42-28,42-42.51a53.42,53.42,0,0,0,14.32-37.72C138.54,27,103.32,1.41,68.77,8.74Zm49.32,96.36C106.45,116.9,94.6,128.48,83,140.28c-1.84,1.87-2.74,1.5-4.35-.13C67,128.48,55.31,117,43.74,105.27,25.6,87,22.06,60.34,34.81,39.13A53.87,53.87,0,0,1,94.84,15c23.29,6.41,39.35,27.42,39.42,44.73C134.28,81.69,128.59,94.46,118.09,105.1Z"/><g id="car"><path class="cls-2" d="M115.53,59.65c-5.17-1.92-10.53-3.09-14.37-7.93C90.54,38.36,95.31,41.15,78.74,40.83a42.3,42.3,0,0,1-6,0c-6-.89-10.19,1.45-13.24,6.65-3.43,5.82-8.06,10.34-15,11.94-1.9.44-3.49,1.7-3.55,3.85q-.21,7.46-.1,14.92c0,1.8,1.3,2.45,3.08,2.48s2.46-.2,2.92-2.2a9.57,9.57,0,0,1,9.69-7.66,9.37,9.37,0,0,1,9.49,7.38c.56,2.24,1.62,2.53,3.58,2.49q8.4-.18,16.81,0c2,0,3-.24,3.48-2.58a9.36,9.36,0,0,1,8.84-7.25c4.61-.25,8.88,2,9.79,6.33.77,3.68,2.72,3.71,5.42,3.47.62-.06,1.25,0,1.87,0,5.92,0,8.43-2.52,8.46-8.49S121.11,61.73,115.53,59.65Zm-50-3.32c-2.59-.08-5.19,0-8.81,0,3.69-4.5,6.24-9,10.07-12.47l1,.37c0,3.34-.07,6.68,0,10C67.85,55.92,67.11,56.37,65.57,56.33Zm6.3,21.93h-1c-.43-6.38-.21-12.76-.14-19.15h1.17Zm6.23-14.9c-1.18,0-2.73.29-2.82-1.12-.12-1.72,1.56-1.59,2.74-1.57s2.87-.33,2.85,1.41S79.07,63.15,78.1,63.36ZM99,70,98.16,70V57.66H99ZM73.63,56.31c-1.48,0-2.13-.34-2.28-2.05C70.43,43.57,70.41,44,81,43.42,88,43,93.28,44.58,96.73,51c.92,1.71,2.41,3.11,4.14,5.3C91.21,56.29,82.42,56.28,73.63,56.31Zm48.13,19.41a11.87,11.87,0,0,1,0-7.34C123.27,71,123.26,73,121.76,75.72Z"/><path class="cls-2" d="M56.66,72.8a7.63,7.63,0,0,0-7.9,7.67,7.38,7.38,0,0,0,7.74,7.72c4.64,0,7.94-3.1,8-7.55A7.76,7.76,0,0,0,56.66,72.8ZM56.71,85c-2.76-.28-4.42-1.71-4.45-4.49s1.74-4.37,4.43-4.34a4,4,0,0,1,4.22,4.18C61,83.21,59.32,84.56,56.71,85Z"/><path class="cls-2" d="M99.49,72.82a7.76,7.76,0,0,0-7.91,7.71,7.54,7.54,0,0,0,7.88,7.66c4.65,0,7.83-3.09,7.82-7.62A7.56,7.56,0,0,0,99.49,72.82Zm.1,12.2c-2.69-.29-4.4-1.61-4.46-4.46s1.58-4.19,4.06-4.39a4.08,4.08,0,0,1,4.7,4.16C104.06,83.07,102.3,84.59,99.59,85Z"/></g><path class="cls-1" d="M8.89,157.39h8.22c4.35,0,8,1.5,8,6.45,0,3-1.59,5.28-4.59,5.82l5.4,9H20.32l-4.44-8.49H13.57v8.49H8.89Zm4.68,8.79h2.76c1.71,0,3.93-.06,3.93-2.37,0-2.13-1.92-2.46-3.63-2.46H13.57Z"/><path class="cls-1" d="M41.56,176.11A7.92,7.92,0,0,1,35.41,179c-4.5,0-8.1-3-8.1-7.65s3.6-7.65,8.1-7.65c4.2,0,6.84,3,6.84,7.65v1.41H31.81a3.36,3.36,0,0,0,3.39,2.82,3.84,3.84,0,0,0,3.21-1.77Zm-3.81-6.42A2.7,2.7,0,0,0,35,166.93a3,3,0,0,0-3.18,2.76Z"/><path class="cls-1" d="M53.23,168.34a3.23,3.23,0,0,0-2.62-1.23c-.74,0-1.64.33-1.64,1.2,0,2.16,7.59.33,7.59,5.88,0,3.72-3.6,4.8-6.72,4.8a8,8,0,0,1-5.73-2l2.73-3A3.91,3.91,0,0,0,50,175.57c1,0,2-.27,2-1,0-2.34-7.59-.36-7.59-5.91,0-3.42,3.06-4.92,6.12-4.92A7.33,7.33,0,0,1,56,165.61Z"/><path class="cls-1" d="M90,157.39h3.88l9.23,21.24H97.82L96,174.13H87.73L86,178.63H80.81Zm1.8,6.18-2.57,6.6H94.4Z"/><path class="cls-1" d="M104.72,156h4.49v22.68h-4.49Z"/><path class="cls-1" d="M126.25,176.11A7.92,7.92,0,0,1,120.1,179c-4.49,0-8.1-3-8.1-7.65s3.61-7.65,8.1-7.65c4.2,0,6.84,3,6.84,7.65v1.41H116.5a3.36,3.36,0,0,0,3.39,2.82,3.84,3.84,0,0,0,3.21-1.77Zm-3.81-6.42a2.7,2.7,0,0,0-2.76-2.76,3,3,0,0,0-3.18,2.76Z"/><path class="cls-1" d="M129.67,164.05h4.5v2.34h.06a4.45,4.45,0,0,1,4.2-2.7,5.92,5.92,0,0,1,1.5.15V168a6.93,6.93,0,0,0-1.92-.3c-3.42,0-3.84,2-3.84,4.89v6.09h-4.5Z"/><path class="cls-1" d="M152.81,167.65h-4v4.86c0,1.56.18,2.7,2.13,2.7a3.24,3.24,0,0,0,1.83-.42v3.75a9.32,9.32,0,0,1-3.15.45c-3,0-5.31-1.23-5.31-4.41v-6.93h-2.88v-3.6h2.88v-4.32h4.5v4.32h4Z"/><text class="cls-3" transform="translate(57.28 178.99)">Q</text></svg>